<svg xmlns="http://www.w3.org/2000/svg" viewBox="0 0 75 80"><g transform="translate(-16 -0.025)"><path d="M85.647,12.961,55.964.593a7.444,7.444,0,0,0-5.7,0L20.576,12.961A7.413,7.413,0,0,0,16,19.81C16,50.5,33.7,71.709,50.244,78.6a7.444,7.444,0,0,0,5.7,0C69.2,73.085,90.208,54.023,90.208,19.81A7.423,7.423,0,0,0,85.647,12.961Z" fill="#053361"/><path d="M81.115,101.075a2.529,2.529,0,0,1-1.9,0C64.078,95.076,48,74.051,48,46.842a2.485,2.485,0,0,1,1.515-2.288L79.2,32.186a2.529,2.529,0,0,1,1.9,0l29.683,12.368a2.437,2.437,0,0,1,1.515,2.288C112.313,74.051,96.235,95.076,81.115,101.075Z" transform="translate(-27.053 -27.032)" fill="#ffd900"/><path d="M163.009,150.809a1.871,1.871,0,0,0-2.628-.015l-25.261,25.061L124.452,165.11a1.871,1.871,0,0,0-2.628-.015l-1.314,1.314a1.871,1.871,0,0,0-.015,2.628l13.28,13.388a1.871,1.871,0,0,0,2.628.015l27.905-27.673a1.871,1.871,0,0,0,.015-2.628Z" transform="translate(-87.89 -127.011)" fill="#053361"/></g></svg>