<svg xmlns="http://www.w3.org/2000/svg" viewBox="0 0 24 27"><path d="M20.925,3.348H18.414V.628A.63.63,0,0,0,17.787,0h-.419a.63.63,0,0,0-.628.628v2.72H6.7V.628A.63.63,0,0,0,6.068,0H5.65a.63.63,0,0,0-.628.628v2.72H2.511A2.512,2.512,0,0,0,0,5.859V24.273a2.512,2.512,0,0,0,2.511,2.511H20.925a2.512,2.512,0,0,0,2.511-2.511V5.859A2.512,2.512,0,0,0,20.925,3.348ZM2.511,5.022H20.925a.839.839,0,0,1,.837.837V8.37H1.674V5.859A.839.839,0,0,1,2.511,5.022ZM20.925,25.11H2.511a.839.839,0,0,1-.837-.837V10.044H21.762V24.273A.839.839,0,0,1,20.925,25.11ZM7.742,16.74H5.65a.63.63,0,0,1-.628-.628V14.02a.63.63,0,0,1,.628-.628H7.742a.63.63,0,0,1,.628.628v2.093A.63.63,0,0,1,7.742,16.74Zm5.022,0H10.672a.63.63,0,0,1-.628-.628V14.02a.63.63,0,0,1,.628-.628h2.093a.63.63,0,0,1,.628.628v2.093A.63.63,0,0,1,12.764,16.74Zm5.022,0H15.694a.63.63,0,0,1-.628-.628V14.02a.63.63,0,0,1,.628-.628h2.093a.63.63,0,0,1,.628.628v2.093A.63.63,0,0,1,17.787,16.74Zm-5.022,5.022H10.672a.63.63,0,0,1-.628-.628V19.042a.63.63,0,0,1,.628-.628h2.093a.63.63,0,0,1,.628.628v2.093A.63.63,0,0,1,12.764,21.762Zm-5.022,0H5.65a.63.63,0,0,1-.628-.628V19.042a.63.63,0,0,1,.628-.628H7.742a.63.63,0,0,1,.628.628v2.093A.63.63,0,0,1,7.742,21.762Zm10.044,0H15.694a.63.63,0,0,1-.628-.628V19.042a.63.63,0,0,1,.628-.628h2.093a.63.63,0,0,1,.628.628v2.093A.63.63,0,0,1,17.787,21.762Z" fill="#053361"/></svg>