<svg xmlns="http://www.w3.org/2000/svg" viewBox="0 0 30 40"><path d="M17.085,10.373V0H1.831A1.826,1.826,0,0,0,0,1.831v35.39a1.826,1.826,0,0,0,1.831,1.831H27.458a1.826,1.826,0,0,0,1.831-1.831V12.2H18.915A1.836,1.836,0,0,1,17.085,10.373Zm4.881,18a.918.918,0,0,1-.915.915H8.237a.918.918,0,0,1-.915-.915v-.61a.918.918,0,0,1,.915-.915H21.051a.918.918,0,0,1,.915.915Zm0-4.881a.918.918,0,0,1-.915.915H8.237a.918.918,0,0,1-.915-.915v-.61a.918.918,0,0,1,.915-.915H21.051a.918.918,0,0,1,.915.915Zm0-5.492v.61a.918.918,0,0,1-.915.915H8.237a.918.918,0,0,1-.915-.915V18a.918.918,0,0,1,.915-.915H21.051A.918.918,0,0,1,21.966,18Zm7.322-8.7v.465H19.526V0h.465a1.829,1.829,0,0,1,1.3.534l7.467,7.475A1.825,1.825,0,0,1,29.288,9.3Z" fill="#fff"/></svg>