<svg xmlns="http://www.w3.org/2000/svg" viewBox="0 0 25 33"><g transform="translate(-3.493 -3.48)"><path d="M105.516,99.45a6.016,6.016,0,1,0,6.016,6.016A6.023,6.023,0,0,0,105.516,99.45Zm0,10.407a4.39,4.39,0,1,1,4.39-4.39A4.4,4.4,0,0,1,105.516,109.857Z" transform="translate(-89.763 -89.728)" fill="#053361"/><path d="M27.953,32.525,24.8,24.769l.081-.1a3.435,3.435,0,0,0,.65-1.243c.034-.128.064-.245.092-.351a3.12,3.12,0,0,1,1.193-2.064l.2-.2a3.525,3.525,0,0,0,.883-3.351l-.083-.313a3.164,3.164,0,0,1,0-2.4c.026-.1.053-.2.083-.314a3.525,3.525,0,0,0-.883-3.351l-.175-.176a3.136,3.136,0,0,1-1.213-2.072c-.029-.11-.06-.23-.1-.363a3.459,3.459,0,0,0-2.423-2.463l-.3-.082A3.1,3.1,0,0,1,20.722,4.68L20.55,4.5a3.421,3.421,0,0,0-3.324-.9l-.262.073a3.017,3.017,0,0,1-2.375.013l-.31-.086a3.4,3.4,0,0,0-3.322.906l-.208.214a3.04,3.04,0,0,1-2.029,1.2L8.4,6.009A3.46,3.46,0,0,0,5.976,8.47c-.034.128-.064.244-.092.351a3.12,3.12,0,0,1-1.193,2.063l-.2.2a3.525,3.525,0,0,0-.882,3.351l.083.313a3.165,3.165,0,0,1,0,2.4c-.026.1-.053.2-.083.314a3.526,3.526,0,0,0,.883,3.351l.175.176a3.136,3.136,0,0,1,1.213,2.072c.028.11.06.23.1.363a3.435,3.435,0,0,0,.65,1.244l.081.1L3.555,32.524a.813.813,0,0,0,.751,1.12h.009l.755-.029,2.8-.107L10.3,36.074a.8.8,0,0,0,.588.254.813.813,0,0,0,.756-.506l3.45-8.488.1-.034a1.754,1.754,0,0,1,1.13,0l.1.033.039.1,3.411,8.393a.812.812,0,0,0,.756.506.8.8,0,0,0,.588-.254l2.429-2.565,2.8.107.757.029H27.2a.813.813,0,0,0,.751-1.12ZM10.61,34.039,8.543,31.856l-3.008.116L8.06,25.758l.2.066a.734.734,0,0,1,.1.042.334.334,0,0,0,.039.018l.368.1a2.607,2.607,0,0,1,1.767.974l.022.023a3.4,3.4,0,0,0,2.193,1.006l.313.022ZM13.934,26.1a1.765,1.765,0,0,1-2.219-.262A4.126,4.126,0,0,0,9.139,24.4l-.311-.083a1.833,1.833,0,0,1-1.281-1.308l-.037-.143A4.776,4.776,0,0,0,5.652,19.67a1.891,1.891,0,0,1-.471-1.8l0-.018a4.95,4.95,0,0,0,0-3.829,1.892,1.892,0,0,1,.47-1.8l.03-.03a4.781,4.781,0,0,0,1.837-3.2l.029-.11A1.828,1.828,0,0,1,8.828,7.578l.106-.029a4.6,4.6,0,0,0,3.087-1.806l.095-.1a1.788,1.788,0,0,1,1.736-.477l.066.018a4.645,4.645,0,0,0,3.683,0l.052-.014a1.783,1.783,0,0,1,1.739.474,4.718,4.718,0,0,0,3.184,1.906l.107.029A1.831,1.831,0,0,1,23.96,8.885L24,9.028a4.776,4.776,0,0,0,1.857,3.194,1.891,1.891,0,0,1,.471,1.8,4.961,4.961,0,0,0,0,3.838l0,.009a1.892,1.892,0,0,1-.47,1.8l-.034.034a4.783,4.783,0,0,0-1.834,3.2l-.028.106a1.833,1.833,0,0,1-1.281,1.307l-.319.084a4.071,4.071,0,0,0-2.568,1.441,1.782,1.782,0,0,1-1.271.539,1.755,1.755,0,0,1-.95-.28A3.422,3.422,0,0,0,13.934,26.1Zm9.031,5.756L20.9,34.039,18.442,28l.314-.022a3.35,3.35,0,0,0,2.2-1l.025-.025a2.536,2.536,0,0,1,1.738-.967l.4-.1.037-.017a.691.691,0,0,1,.1-.042l.2-.063,2.524,6.211Z" fill="#053361"/></g></svg>