<svg xmlns="http://www.w3.org/2000/svg" viewBox="0 0 25 25"><path d="M21.126,159.709a1.884,1.884,0,0,0-2.891,0l-2.026,2.026a.426.426,0,0,1-.562.115c-.411-.26-.9-.447-1.312-.714a21.286,21.286,0,0,1-5.069-4.614,12.4,12.4,0,0,1-1.8-2.927.419.419,0,0,1,.115-.526c.714-.642,1.348-1.312,2.026-1.99a1.913,1.913,0,0,0,0-2.963L7.99,146.5c-.562-.562-1.089-1.125-1.651-1.651a1.935,1.935,0,0,0-2.891,0l-2.026,2.026a3.533,3.533,0,0,0-1.053,2.25,9.362,9.362,0,0,0,.714,4.052,25.068,25.068,0,0,0,4.391,7.318,26.889,26.889,0,0,0,9.012,7.059,13.634,13.634,0,0,0,4.917,1.464,3.7,3.7,0,0,0,3.151-1.2c.562-.678,1.24-1.24,1.839-1.875a1.962,1.962,0,0,0,0-2.963Z" transform="translate(-0.346 -144.2)" fill="#fff"/></svg>