<svg xmlns="http://www.w3.org/2000/svg" viewBox="0 0 27 20"><path d="M25.9,70.537a.31.31,0,0,1,.5.242V81.322A2.475,2.475,0,0,1,23.921,83.8H2.475A2.475,2.475,0,0,1,0,81.322V70.785a.308.308,0,0,1,.5-.242c1.155.9,2.686,2.036,7.944,5.857,1.088.794,2.923,2.464,4.753,2.454,1.84.015,3.712-1.691,4.758-2.454C23.215,72.579,24.741,71.434,25.9,70.537ZM13.2,77.2c1.2.021,2.918-1.505,3.784-2.134,6.841-4.965,7.362-5.4,8.939-6.635a1.234,1.234,0,0,0,.474-.974v-.98A2.475,2.475,0,0,0,23.921,64H2.475A2.475,2.475,0,0,0,0,66.475v.98a1.241,1.241,0,0,0,.474.974c1.578,1.232,2.1,1.67,8.939,6.635C10.28,75.693,12,77.219,13.2,77.2Z" transform="translate(0 -64)" fill="#fff"/></svg>