<svg xmlns="http://www.w3.org/2000/svg" viewBox="0 0 39 40"><path d="M47.318,39.769a1.025,1.025,0,0,0-.305-.65l-15.38-15.38a11.673,11.673,0,1,0-6.185,6.185L30.5,34.98a1.057,1.057,0,0,0,.786.308l2.753-.1-.09,2.76a1.053,1.053,0,0,0,1.087,1.09l2.764-.094L37.7,41.7a1.076,1.076,0,0,0,.307.783,1.01,1.01,0,0,0,.787.308l2.757-.094L41.46,45.46a1.05,1.05,0,0,0,.331.809,1.061,1.061,0,0,0,.719.282c.038,0,.077,0,.116-.005l4.227-.469a1.06,1.06,0,0,0,.938-1.145Zm-27.842-22a3.318,3.318,0,1,1,0-4.693A3.317,3.317,0,0,1,19.476,17.765ZM43.71,40.121a.8.8,0,0,1-1.124,0L29.5,27.032a11.167,11.167,0,0,0,1-1.241L43.71,39A.794.794,0,0,1,43.71,40.121Z" transform="translate(-9.215 -7.5)" fill="#fff"/></svg>