<svg xmlns="http://www.w3.org/2000/svg" viewBox="0 0 17 17"><path d="M16.793,8.18A8.258,8.258,0,0,1,4.564,15.343L0,16.793,1.488,12.4A8.094,8.094,0,0,1,.305,8.18a8.244,8.244,0,0,1,16.488,0ZM8.549,1.3A6.912,6.912,0,0,0,1.618,8.18a6.805,6.805,0,0,0,1.32,4.032l-.866,2.554,2.664-.847A6.938,6.938,0,0,0,15.48,8.181,6.913,6.913,0,0,0,8.549,1.3Zm4.163,8.761c-.051-.083-.185-.134-.387-.234s-1.2-.586-1.381-.652-.32-.1-.455.1-.522.652-.64.786-.236.151-.438.051a5.531,5.531,0,0,1-1.625-1A6.045,6.045,0,0,1,6.662,7.731c-.118-.2-.012-.309.089-.409s.2-.234.3-.351a1.344,1.344,0,0,0,.2-.335.365.365,0,0,0-.017-.351c-.05-.1-.455-1.087-.623-1.488s-.336-.334-.455-.334-.253-.017-.387-.017a.746.746,0,0,0-.539.251,2.242,2.242,0,0,0-.707,1.672,3.88,3.88,0,0,0,.825,2.074A8.261,8.261,0,0,0,8.8,11.47c2.055.8,2.055.535,2.425.5a2.044,2.044,0,0,0,1.364-.953A1.672,1.672,0,0,0,12.712,10.064Z" fill="#fff"/></svg>