<svg xmlns="http://www.w3.org/2000/svg" viewBox="0 0 17 13"><path d="M15.406,64H1.594A1.594,1.594,0,0,0,0,65.594v9.562A1.594,1.594,0,0,0,1.594,76.75H15.406A1.594,1.594,0,0,0,17,75.156V65.594A1.594,1.594,0,0,0,15.406,64ZM1.594,65.062H15.406a.533.533,0,0,1,.531.531v1.375c-.727.614-1.766,1.461-5,4.028-.561.445-1.667,1.517-2.437,1.5-.77.013-1.879-1.059-2.437-1.5-3.234-2.567-4.273-3.413-5-4.028V65.594A.533.533,0,0,1,1.594,65.062ZM15.406,75.687H1.594a.533.533,0,0,1-.531-.531V68.35c.757.621,1.952,1.58,4.34,3.476.681.545,1.883,1.743,3.1,1.737,1.209.01,2.4-1.179,3.1-1.737,2.387-1.9,3.583-2.855,4.34-3.476v6.807A.533.533,0,0,1,15.406,75.687Z" transform="translate(0 -64)" fill="#fff"/></svg>